<?xml version="1.0" encoding="utf-8"?>
<!-- Generator: Adobe Illustrator 24.0.2, SVG Export Plug-In . SVG Version: 6.00 Build 0)  -->
<svg version="1.1" id="Calque_1" xmlns="http://www.w3.org/2000/svg" xmlns:xlink="http://www.w3.org/1999/xlink" x="0px" y="0px"
	 viewBox="0 0 102 148" style="enable-background:new 0 0 102 148;" xml:space="preserve">
<style type="text/css">
	.st0{fill:url(#SVGID_1_);}
</style>
<g>
	<linearGradient id="SVGID_1_" gradientUnits="userSpaceOnUse" x1="51" y1="1.5" x2="51" y2="146.5">
		<stop  offset="3.926918e-04" style="stop-color:#FFFFFF"/>
		<stop  offset="6.484296e-02" style="stop-color:#DBFFFF"/>
		<stop  offset="0.2389" style="stop-color:#7EFFFF"/>
		<stop  offset="0.3802" style="stop-color:#3AFFFF"/>
		<stop  offset="0.4818" style="stop-color:#10FFFF"/>
		<stop  offset="0.5336" style="stop-color:#00FFFF"/>
		<stop  offset="0.5966" style="stop-color:#04FFFB"/>
		<stop  offset="0.6557" style="stop-color:#0FFFF0"/>
		<stop  offset="0.7132" style="stop-color:#22FFDD"/>
		<stop  offset="0.7699" style="stop-color:#3DFFC2"/>
		<stop  offset="0.8259" style="stop-color:#5FFFA0"/>
		<stop  offset="0.8813" style="stop-color:#89FF76"/>
		<stop  offset="0.9364" style="stop-color:#BBFF44"/>
		<stop  offset="0.9898" style="stop-color:#F4FF0B"/>
		<stop  offset="0.9996" style="stop-color:#FFFF00"/>
	</linearGradient>
	<path class="st0" d="M51,11.5c4.3,0,8.9,4.1,12,7.6c4.9,5.5,9.8,13.7,14.2,23.6C86.3,63,91,85.1,91,96.5c0,22.1-17.9,40-40,40
		s-40-17.9-40-40c0-11.4,4.7-33.5,13.8-53.8c4.4-9.9,9.4-18.1,14.2-23.6C42.1,15.6,46.7,11.5,51,11.5 M51,1.5c-27.6,0-50,67.4-50,95
		s22.4,50,50,50s50-22.4,50-50S78.6,1.5,51,1.5L51,1.5z"/>
</g>
</svg>
