<?xml version="1.0" encoding="utf-8"?>
<!-- Generator: Adobe Illustrator 24.0.3, SVG Export Plug-In . SVG Version: 6.00 Build 0)  -->
<svg version="1.1" id="Calque_1" xmlns="http://www.w3.org/2000/svg" xmlns:xlink="http://www.w3.org/1999/xlink" x="0px" y="0px"
	 viewBox="0 0 562 419" style="enable-background:new 0 0 562 419;" xml:space="preserve">
<style type="text/css">
	.st0{fill:url(#SVGID_1_);}
	.st1{fill:url(#SVGID_2_);}
	.st2{fill:url(#SVGID_3_);}
	.st3{fill:url(#SVGID_4_);}
	.st4{fill:url(#SVGID_5_);}
	.st5{fill:url(#SVGID_6_);}
	.st6{fill:url(#SVGID_7_);}
	.st7{fill:url(#SVGID_8_);}
</style>
<g>
	
		<linearGradient id="SVGID_1_" gradientUnits="userSpaceOnUse" x1="89" y1="383.5" x2="89" y2="238.5" gradientTransform="matrix(1 0 0 -1 0 422)">
		<stop  offset="3.926918e-04" style="stop-color:#FFFFDE"/>
		<stop  offset="6.484296e-02" style="stop-color:#DBFFFF"/>
		<stop  offset="0.2389" style="stop-color:#7EFFFF"/>
		<stop  offset="0.3802" style="stop-color:#3AFFFF"/>
		<stop  offset="0.4818" style="stop-color:#10FFFF"/>
		<stop  offset="0.5336" style="stop-color:#00FFFF"/>
		<stop  offset="0.5966" style="stop-color:#04FFFF"/>
		<stop  offset="0.6557" style="stop-color:#0FFFF0"/>
		<stop  offset="0.7132" style="stop-color:#22FFDD"/>
		<stop  offset="0.7699" style="stop-color:#3DFFC2"/>
		<stop  offset="0.8259" style="stop-color:#5FFFA0"/>
		<stop  offset="0.8813" style="stop-color:#89FF76"/>
		<stop  offset="0.9364" style="stop-color:#BBFF44"/>
		<stop  offset="0.9898" style="stop-color:#F4FF0B"/>
		<stop  offset="0.9996" style="stop-color:#FFFF00"/>
	</linearGradient>
	<path class="st0" d="M139,133.5c0,27.6-22.4,50-50,50s-50-22.4-50-50s22.4-95,50-95S139,105.9,139,133.5z"/>
</g>
<g>
	
		<linearGradient id="SVGID_2_" gradientUnits="userSpaceOnUse" x1="399" y1="374" x2="399" y2="229" gradientTransform="matrix(1 0 0 -1 0 422)">
		<stop  offset="0" style="stop-color:#FFFF00"/>
		<stop  offset="9.213978e-02" style="stop-color:#F9F906"/>
		<stop  offset="0.2174" style="stop-color:#E7E718"/>
		<stop  offset="0.3616" style="stop-color:#CBCB34"/>
		<stop  offset="0.5202" style="stop-color:#A3A35C"/>
		<stop  offset="0.6904" style="stop-color:#70708F"/>
		<stop  offset="0.8675" style="stop-color:#3232CD"/>
		<stop  offset="0.9988" style="stop-color:#0000FF"/>
	</linearGradient>
	<path class="st1" d="M449,143c0,27.6-22.4,50-50,50s-50-22.4-50-50s22.4-95,50-95S449,115.4,449,143z"/>
</g>
<g>
	
		<linearGradient id="SVGID_3_" gradientUnits="userSpaceOnUse" x1="505" y1="378.5" x2="505" y2="233.5" gradientTransform="matrix(1 0 0 -1 0 422)">
		<stop  offset="0" style="stop-color:#0000FF"/>
		<stop  offset="8.916946e-02" style="stop-color:#0707F8"/>
		<stop  offset="0.2165" style="stop-color:#1A1AE5"/>
		<stop  offset="0.3668" style="stop-color:#3838C7"/>
		<stop  offset="0.5346" style="stop-color:#63639C"/>
		<stop  offset="0.7169" style="stop-color:#9B9B64"/>
		<stop  offset="0.9085" style="stop-color:#DDDD22"/>
		<stop  offset="1" style="stop-color:#FFFF00"/>
	</linearGradient>
	<path class="st2" d="M555,138.5c0,27.6-22.4,50-50,50c-27.6,0-50-22.4-50-50s22.4-95,50-95C532.6,43.5,555,110.9,555,138.5z"/>
</g>
<g>
	
		<linearGradient id="SVGID_4_" gradientUnits="userSpaceOnUse" x1="195" y1="383.5" x2="195" y2="238.5" gradientTransform="matrix(1 0 0 -1 0 422)">
		<stop  offset="0" style="stop-color:#FFFF00"/>
		<stop  offset="9.217601e-02" style="stop-color:#F9FF06"/>
		<stop  offset="0.2175" style="stop-color:#E7FF18"/>
		<stop  offset="0.3618" style="stop-color:#CBFF34"/>
		<stop  offset="0.5204" style="stop-color:#A3FF5C"/>
		<stop  offset="0.6907" style="stop-color:#70FF8F"/>
		<stop  offset="0.8679" style="stop-color:#32FFCD"/>
		<stop  offset="0.9992" style="stop-color:#00FFFF"/>
	</linearGradient>
	<path class="st3" d="M245,133.5c0,27.6-22.4,50-50,50s-50-22.4-50-50s22.4-95,50-95S245,105.9,245,133.5z"/>
</g>
<g>
	
		<linearGradient id="SVGID_5_" gradientUnits="userSpaceOnUse" x1="215" y1="183.5" x2="215" y2="38.5" gradientTransform="matrix(1 0 0 -1 0 422)">
		<stop  offset="7.853836e-04" style="stop-color:#FF00FF"/>
		<stop  offset="9.288893e-02" style="stop-color:#F906FF"/>
		<stop  offset="0.2181" style="stop-color:#E718FF"/>
		<stop  offset="0.3623" style="stop-color:#CB34FF"/>
		<stop  offset="0.5207" style="stop-color:#A35CFF"/>
		<stop  offset="0.6909" style="stop-color:#708FFF"/>
		<stop  offset="0.868" style="stop-color:#32CDFF"/>
		<stop  offset="0.9992" style="stop-color:#00FFFF"/>
	</linearGradient>
	<path class="st4" d="M265,333.5c0,27.6-22.4,50-50,50s-50-22.4-50-50s22.4-95,50-95S265,305.9,265,333.5z"/>
</g>
<g>
	
		<linearGradient id="SVGID_6_" gradientUnits="userSpaceOnUse" x1="105" y1="38.5" x2="105" y2="183.5" gradientTransform="matrix(1 0 0 -1 0 422)">
		<stop  offset="7.853836e-04" style="stop-color:#FF00FF"/>
		<stop  offset="9.288893e-02" style="stop-color:#F906FF"/>
		<stop  offset="0.2181" style="stop-color:#E718FF"/>
		<stop  offset="0.3623" style="stop-color:#CB34FF"/>
		<stop  offset="0.5207" style="stop-color:#A35CFF"/>
		<stop  offset="0.6909" style="stop-color:#708FFF"/>
		<stop  offset="0.868" style="stop-color:#32CDFF"/>
		<stop  offset="0.9992" style="stop-color:#00FFFF"/>
	</linearGradient>
	<path class="st5" d="M155,333.5c0,27.6-22.4,50-50,50s-50-22.4-50-50s22.4-95,50-95S155,305.9,155,333.5z"/>
</g>
<g>
	
		<linearGradient id="SVGID_7_" gradientUnits="userSpaceOnUse" x1="375" y1="38.5" x2="375" y2="183.5" gradientTransform="matrix(1 0 0 -1 0 422)">
		<stop  offset="7.647156e-04" style="stop-color:#FF0000"/>
		<stop  offset="9.287017e-02" style="stop-color:#F90606"/>
		<stop  offset="0.2181" style="stop-color:#E71818"/>
		<stop  offset="0.3623" style="stop-color:#CB3434"/>
		<stop  offset="0.5207" style="stop-color:#A35C5C"/>
		<stop  offset="0.6909" style="stop-color:#708F8F"/>
		<stop  offset="0.868" style="stop-color:#32CDCD"/>
		<stop  offset="0.9992" style="stop-color:#00FFFF"/>
	</linearGradient>
	<path class="st6" d="M425,333.5c0,27.6-22.4,50-50,50s-50-22.4-50-50s22.4-95,50-95S425,305.9,425,333.5z"/>
</g>
<g>
	
		<linearGradient id="SVGID_8_" gradientUnits="userSpaceOnUse" x1="495" y1="183.5" x2="495" y2="38.5" gradientTransform="matrix(1 0 0 -1 0 422)">
		<stop  offset="7.853836e-04" style="stop-color:#FF0000"/>
		<stop  offset="9.288893e-02" style="stop-color:#F90606"/>
		<stop  offset="0.2181" style="stop-color:#E71818"/>
		<stop  offset="0.3623" style="stop-color:#CB3434"/>
		<stop  offset="0.5207" style="stop-color:#A35C5C"/>
		<stop  offset="0.6909" style="stop-color:#708F8F"/>
		<stop  offset="0.868" style="stop-color:#32CDCD"/>
		<stop  offset="0.9992" style="stop-color:#00FFFF"/>
	</linearGradient>
	<path class="st7" d="M545,333.5c0,27.6-22.4,50-50,50c-27.6,0-50-22.4-50-50s22.4-95,50-95C522.6,238.5,545,305.9,545,333.5z"/>
</g>
</svg>
